<?xml version="1.0" encoding="utf-8"?>
<!-- Generator: Adobe Illustrator 18.0.0, SVG Export Plug-In . SVG Version: 6.00 Build 0)  -->
<!DOCTYPE svg PUBLIC "-//W3C//DTD SVG 1.1//EN" "http://www.w3.org/Graphics/SVG/1.1/DTD/svg11.dtd">
<svg version="1.1" id="Aplicaciones" xmlns="http://www.w3.org/2000/svg" xmlns:xlink="http://www.w3.org/1999/xlink" x="0px"
	 y="0px" viewBox="0 0 64.1 64.1" enable-background="new 0 0 64.1 64.1" xml:space="preserve">
<g id="Arqueologia" display="none">
	<g display="inline">
		<defs>
			<circle id="SVGID_1_" cx="621.3" cy="32.2" r="32.4"/>
		</defs>
		<use xlink:href="#SVGID_1_"  overflow="visible" fill="#A1398D"/>
		<clipPath id="SVGID_2_">
			<use xlink:href="#SVGID_1_"  overflow="visible"/>
		</clipPath>
	</g>
	<g display="inline">
		<rect x="613" y="9.6" fill="#FFFFFF" width="15" height="2"/>
		<polygon fill="#FFFFFF" points="596,46.6 614.7,46.6 615.1,41.6 596,41.6 		"/>
		<polygon fill="#FFFFFF" points="600,39.6 615.3,39.6 615.7,34.6 600,34.6 		"/>
		<polygon fill="#FFFFFF" points="604,27.6 604,32.6 615.9,32.6 616.3,27.6 		"/>
		<polygon fill="#FFFFFF" points="616.9,20.6 608,20.6 608,25.6 616.5,25.6 		"/>
		<polygon fill="#FFFFFF" points="617.5,13.6 612,13.6 612,18.6 617,18.6 		"/>
		<polygon fill="#FFFFFF" points="645,46.6 627.3,46.6 626.8,41.6 645,41.6 		"/>
		<polygon fill="#FFFFFF" points="641,39.6 626.7,39.6 626.3,34.6 641,34.6 		"/>
		<polygon fill="#FFFFFF" points="637,27.6 637,32.6 626.1,32.6 625.7,27.6 		"/>
		<polygon fill="#FFFFFF" points="625.1,20.6 633,20.6 633,25.6 625.5,25.6 		"/>
		<polygon fill="#FFFFFF" points="624.5,13.6 629,13.6 629,18.6 624.9,18.6 		"/>
		<polygon fill="#FFFFFF" points="624.1,18.6 626.5,46.6 615.5,46.6 617.8,18.6 		"/>
	</g>
</g>
<g id="Geotermia" display="none">
	<g display="inline">
		<defs>
			<circle id="SVGID_3_" cx="503.3" cy="32.2" r="32.4"/>
		</defs>
		<use xlink:href="#SVGID_3_"  overflow="visible" fill="#E86311"/>
		<clipPath id="SVGID_4_">
			<use xlink:href="#SVGID_3_"  overflow="visible"/>
		</clipPath>
		<path clip-path="url(#SVGID_4_)" fill="#FFFFFF" d="M496.9,5.6c0,0,15.8,4,12.8,12.4c-3,8.4-8.6,7-4.2,16.4c0,0-10.2-2.8-5.4-14.1
			C504.8,8.9,498.8,7.8,496.9,5.6z"/>
		<path clip-path="url(#SVGID_4_)" fill="#FFFFFF" d="M511.3,12.8c0,0,11.7,8.5,6,12.5c-5.8,4-9.9,1-9.8,8.5c0,0-6.4-5.4,1.9-10.5
			C517.8,18.2,512.1,14.9,511.3,12.8z"/>
		<g clip-path="url(#SVGID_4_)">
			<path fill="#FFFFFF" d="M536.9,67.6h-65.5l1.8-2.1c1-1.4,5.5-4.1,7.8-5.6c13.1-26.4,13.4-26.7,13.5-26.9c0.6-0.8,18.6-1,19.3-0.1
				c0.1,0.2,0.4,0.5,13.5,27.6c2.3,1.4,6.8,3.5,7.8,5L536.9,67.6z M479.6,65.6h48.9c-1.1,0-2.3-1.6-3.4-2.2l-0.5-0.3l-0.2-0.5
				c-4.6-9.6-11.2-23.1-12.8-26.3c-0.5,0-14.2-0.2-14.9-0.1c-1.5,3-8.1,16.5-12.8,26l-0.2,0.5l-0.4,0.4
				C482.1,63.8,480.8,65.6,479.6,65.6z"/>
			<path fill="#FFFFFF" d="M515.1,39.6L514,43l-4.7-3.3c0,0,1.4,7.7,0,8.8c-1.4,1-4.4-4.8-4.4-4.8s-10,7.9-17.6,9.5l-7.2,10.8
				c0,0-1.7,2.4-1.3,2.5c0.4,0.1,22.4,1.3,22.9,1.3c0.5,0,29.1-1.5,29.1-1.5l-2.5-2.5L515.1,39.6z"/>
		</g>
	</g>
</g>
<g id="Geohidrologia" display="none">
	<g display="inline">
		<g>
			<defs>
				<circle id="SVGID_5_" cx="150.3" cy="32.2" r="32.4"/>
			</defs>
			<use xlink:href="#SVGID_5_"  overflow="visible" fill="#0089C3"/>
			<clipPath id="SVGID_6_">
				<use xlink:href="#SVGID_5_"  overflow="visible"/>
			</clipPath>
		</g>
	</g>
	<path display="inline" fill="#FFFFFF" d="M162.1,35.7c-3.4-10-12.7-19.9-11.8-27.8c0,0-11.1,14.3-13,27.5
		c-1.2,8.5,1.3,18.3,13.1,18C163.8,53,164.9,43.9,162.1,35.7z M157.8,48.8c-3.7-0.1-4-2.7-3.2-5.1c0.9-2.9,3.4-5.7,3.2-8
		c0,0,3,4.1,3.5,7.9C161.7,46.1,161,48.9,157.8,48.8z"/>
</g>
<g id="Geotecnia">
	<g>
		<defs>
			<circle id="SVGID_7_" cx="32.1" cy="32.1" r="32.1"/>
		</defs>
		<use xlink:href="#SVGID_7_"  overflow="visible" fill="#A59E9E"/>
		<clipPath id="SVGID_8_">
			<use xlink:href="#SVGID_7_"  overflow="visible"/>
		</clipPath>
		<g clip-path="url(#SVGID_8_)">
			<rect x="0" y="34.6" fill="#FFFFFF" width="64" height="3"/>
			<g>
				<path fill="#FFFFFF" d="M17.4,11.6h-3.1l0,13.4l0,11.6H16V18.3c3,13.7,15.6,18.6,15.7,18.6l1.2-1.8
					C32.7,35.1,18.2,29.6,17.4,11.6z"/>
			</g>
			<g>
				<rect x="11" y="37.6" fill="#FFFFFF" width="4" height="13"/>
				<rect x="47" y="37.6" fill="#FFFFFF" width="4" height="13"/>
			</g>
			<g>
				<path fill="#FFFFFF" d="M13.1,11.6h3.1l0,13.4l0,11.6H14V18.3C11.6,29.2,3,34.5,0,36.2v-2.3C4,31.4,12.4,24.9,13.1,11.6z"/>
			</g>
			<g>
				<path fill="#FFFFFF" d="M50,11.6h-3.1l0,13.4l0,11.6H48V18.3C50.8,31,62,36.1,63.8,36.8c0.1,0.1,0,0,0,0l0.3-2.2c0,0,0,0,0,0
					C60.6,32.8,50.7,26.5,50,11.6z"/>
			</g>
			<g>
				<path fill="#FFFFFF" d="M45.7,11.6h3.1l0,13.4l0,11.6H46V18.3c-3,13.7-15,18.6-15.2,18.6l-0.9-1.8
					C30.1,35.1,44.8,29.6,45.7,11.6z"/>
			</g>
		</g>
	</g>
</g>
<g id="Mineria" display="none">
	<g display="inline">
		<defs>
			<circle id="SVGID_9_" cx="32.3" cy="32.2" r="32.4"/>
		</defs>
		<use xlink:href="#SVGID_9_"  overflow="visible" fill="#EBAE00"/>
		<clipPath id="SVGID_10_">
			<use xlink:href="#SVGID_9_"  overflow="visible"/>
		</clipPath>
	</g>
	<path display="inline" fill="#FFFFFF" d="M29.2,22l6.8,6l1.8-2.6l9.8,8.3c0,0-3.2-18.3-17.3-26.2l-5,6.9l6.2,4.6L29.2,22z"/>
	<path display="inline" fill="#FFFFFF" d="M12,48.9c-1.4-1.2-1.6-3.3-0.4-4.8l16.5-19.4c0.1-0.1,0.1-0.2,0.2-0.2l5.2,4.3
		c-0.1,0.1-0.2,0.2-0.3,0.3L16.8,48.5C15.5,49.9,13.4,50.1,12,48.9z"/>
	<polygon display="inline" fill="#FFFFFF" points="53.4,37.9 52.4,21.3 54.4,20.5 	"/>
	<polygon display="inline" fill="#FFFFFF" points="51.3,41.4 40.3,53.8 38.3,52.9 	"/>
	<polygon display="inline" fill="#FFFFFF" points="52,39.6 34.3,39.6 32.1,41.5 	"/>
	<path display="inline" fill="#FFFFFF" d="M44.8,40.9l-0.7,1.7H42v1.1l2.8,1.9l2.7-2.4C47.5,43.2,47.2,40.9,44.8,40.9z"/>
	<path display="inline" fill="#FFFFFF" d="M49.9,28.1l-0.6,1.5H48v0.7l2.1,1.6l2.1-1.9C52.2,30,51.8,28.1,49.9,28.1z"/>
	<path display="inline" fill="#FFFFFF" d="M41.8,33.9l-1.1-0.7l0.2-1.6l-1.5-0.2l-1.9,2l1.8,2.6C39.3,36,41.5,35.9,41.8,33.9z"/>
</g>
<g id="Nombres" display="none">
	<text transform="matrix(1 0 0 1 460.813 82.566)" display="inline" fill="#A69F9F" font-family="'CenturyGothic'" font-size="15">GEOTERMIA</text>
	
		<text transform="matrix(1 0 0 1 353.4797 82.5668)" display="inline" fill="#A59E9E" font-family="'CenturyGothic'" font-size="15">AMBIENTAL</text>
	<text transform="matrix(1 0 0 1 86.2114 82.566)" display="inline" fill="#0089C3" font-family="'CenturyGothic'" font-size="15">GEOHIDROLOGÍA</text>
	<text transform="matrix(1 0 0 1 564.4797 82.566)" display="inline" fill="#A59E9E" font-family="'CenturyGothic'" font-size="15">ARQUEOLOGÍA</text>
	<text transform="matrix(1 0 0 1 677.8132 81.566)" display="inline" fill="#A59E9E" font-family="'CenturyGothic'" font-size="15">GEOTECNIA</text>
	<text transform="matrix(1 0 0 1 1.4797 81.5665)" display="inline" fill="#A59E9E" font-family="'CenturyGothic'" font-size="15">MINERÍA</text>
	
		<text transform="matrix(1 0 0 1 218.4797 82.5665)" display="inline" fill="#A59E9E" font-family="'CenturyGothic'" font-size="15">HIDROCARBUROS</text>
</g>
<g id="Hidrocarburos" display="none">
	<g display="inline">
		<defs>
			<circle id="SVGID_11_" cx="281.3" cy="30.2" r="32.4"/>
		</defs>
		<use xlink:href="#SVGID_11_"  overflow="visible" fill="#5D5957"/>
		<clipPath id="SVGID_12_">
			<use xlink:href="#SVGID_11_"  overflow="visible"/>
		</clipPath>
	</g>
	<path display="inline" fill="#FFFFFF" d="M292.6,35.3c-3.4-10-12.7-19.9-11.8-27.8c0,0-11.1,14.3-13,27.5
		c-1.2,8.5,1.3,18.3,13.1,18C294.3,52.6,295.4,43.4,292.6,35.3z"/>
</g>
<g id="Ambiental" display="none">
	<g display="inline">
		<defs>
			<circle id="SVGID_13_" cx="392.3" cy="32.2" r="32.4"/>
		</defs>
		<use xlink:href="#SVGID_13_"  overflow="visible" fill="#59AF31"/>
		<clipPath id="SVGID_14_">
			<use xlink:href="#SVGID_13_"  overflow="visible"/>
		</clipPath>
	</g>
	<path display="inline" fill="#FFFFFF" d="M397.1,18.9c0,0-8.6,7.4-13.3,22.4c0,0-9.1-8.5,0.5-17.9c9.6-9.4,16.9-11.1,19.9-11.5
		c0,0-1.6,3.2-1.4,9.9c0.2,6.7,0.3,13.7-4.2,17.9c-4.6,4.2-9.9,3.3-9.9,3.3s-1.5,3.4-1.8,8.9c0,0-2.4,0.5-3.4-0.4
		C382.5,50.6,387.3,30,397.1,18.9z"/>
</g>
</svg>
