<?xml version="1.0" encoding="utf-8"?>
<!-- Generator: Adobe Illustrator 18.0.0, SVG Export Plug-In . SVG Version: 6.00 Build 0)  -->
<!DOCTYPE svg PUBLIC "-//W3C//DTD SVG 1.1//EN" "http://www.w3.org/Graphics/SVG/1.1/DTD/svg11.dtd">
<svg version="1.1" id="Aplicaciones" xmlns="http://www.w3.org/2000/svg" xmlns:xlink="http://www.w3.org/1999/xlink" x="0px"
	 y="0px" viewBox="0 0 64.7 64.7" enable-background="new 0 0 64.7 64.7" xml:space="preserve">
<g id="Arqueologia" display="none">
	<g display="inline">
		<defs>
			<circle id="SVGID_1_" cx="30" cy="34" r="32"/>
		</defs>
		<use xlink:href="#SVGID_1_"  overflow="visible" fill="#A1398D"/>
		<clipPath id="SVGID_2_">
			<use xlink:href="#SVGID_1_"  overflow="visible"/>
		</clipPath>
	</g>
	<g display="inline">
		<rect x="23.1" y="11.7" fill="#FFFFFF" width="15" height="2"/>
		<polygon fill="#FFFFFF" points="6.1,47.7 24.5,47.7 24.9,43.7 6.1,43.7 		"/>
		<polygon fill="#FFFFFF" points="10.1,41.7 25.1,41.7 25.5,36.7 10.1,36.7 		"/>
		<polygon fill="#FFFFFF" points="14.1,29.7 14.1,34.7 25.7,34.7 26.1,29.7 		"/>
		<polygon fill="#FFFFFF" points="26.7,22.7 18.1,22.7 18.1,27.7 26.2,27.7 		"/>
		<polygon fill="#FFFFFF" points="27.3,15.7 22.1,15.7 22.1,20.7 26.8,20.7 		"/>
		<polygon fill="#FFFFFF" points="54.1,47.7 36.9,47.7 36.5,43.7 54.1,43.7 		"/>
		<polygon fill="#FFFFFF" points="50.1,41.7 36.4,41.7 35.9,36.7 50.1,36.7 		"/>
		<polygon fill="#FFFFFF" points="46.1,29.7 46.1,34.7 35.8,34.7 35.4,29.7 		"/>
		<polygon fill="#FFFFFF" points="34.8,22.7 43.1,22.7 43.1,27.7 35.2,27.7 		"/>
		<polygon fill="#FFFFFF" points="34.2,15.7 39.1,15.7 39.1,20.7 34.6,20.7 		"/>
		<polygon fill="#FFFFFF" points="33.8,20.7 36.2,47.7 25.3,47.7 27.6,20.7 		"/>
	</g>
</g>
<g id="Geotermia" display="none">
	<g display="inline">
		<defs>
			<circle id="SVGID_3_" cx="30.1" cy="34.1" r="32.1"/>
		</defs>
		<use xlink:href="#SVGID_3_"  overflow="visible" fill="#E86311"/>
		<clipPath id="SVGID_4_">
			<use xlink:href="#SVGID_3_"  overflow="visible"/>
		</clipPath>
		<path clip-path="url(#SVGID_4_)" fill="#FFFFFF" d="M23.7,7.7c0,0,15.6,3.9,12.7,12.2c-3,8.3-8.5,7-4.1,16.2c0,0-10.1-2.8-5.4-14
			C31.6,11,25.6,9.9,23.7,7.7z"/>
		<path clip-path="url(#SVGID_4_)" fill="#FFFFFF" d="M38.1,14.8c0,0,11.6,8.4,5.9,12.4c-5.7,4-9.8,1-9.7,8.4c0,0-6.4-5.3,1.9-10.4
			C44.5,20.2,38.8,16.9,38.1,14.8z"/>
		<g clip-path="url(#SVGID_4_)">
			<path fill="#FFFFFF" d="M63.4,68.7H-1.5l1.8-1.9c1-1.4,5.4-4,7.7-5.4C21,35.2,21.3,35,21.4,34.8c0.6-0.8,18.5-0.9,19.1,0
				c0.1,0.2,0.4,0.5,13.3,27.3c2.3,1.4,6.7,3.3,7.7,4.7L63.4,68.7z M6.6,66.7h48.4c-1.1,0-2.3-1.4-3.4-2l-0.5-0.2L51,64
				C46.4,54.4,40,41.1,38.4,37.9c-0.5,0-14.1-0.2-14.8-0.1c-1.5,2.9-8.1,16.4-12.7,25.8l-0.2,0.5l-0.4,0.3
				C9.1,65.1,7.8,66.7,6.6,66.7z"/>
			<path fill="#FFFFFF" d="M41.8,41.4l-1.1,3.3L36,41.4c0,0,1.3,7.7,0,8.7c-1.3,1-4.3-4.8-4.3-4.8s-9.9,7.9-17.4,9.4L7.2,65.4
				c0,0-1.7,2.4-1.2,2.5c0.4,0.1,22.2,1.2,22.7,1.2c0.5,0,28.8-1.5,28.8-1.5L55,65.2L41.8,41.4z"/>
		</g>
	</g>
</g>
<g id="Geohidrologia" display="none">
	<g display="inline">
		<g>
			<defs>
				<circle id="SVGID_5_" cx="30.1" cy="34.1" r="32.1"/>
			</defs>
			<use xlink:href="#SVGID_5_"  overflow="visible" fill="#0089C3"/>
			<clipPath id="SVGID_6_">
				<use xlink:href="#SVGID_5_"  overflow="visible"/>
			</clipPath>
		</g>
	</g>
	<path display="inline" fill="#FFFFFF" d="M41.8,37.5C38.4,27.6,29.2,17.8,30.1,10c0,0-11,14.1-12.9,27.3c-1.2,8.4,1.3,18.1,13,17.8
		C43.5,54.7,44.6,45.6,41.8,37.5z M37.5,50.5c-3.6-0.1-3.9-2.7-3.2-5c0.9-2.9,3.4-5.7,3.2-7.9c0,0,3,4.1,3.5,7.8
		C41.4,47.8,40.7,50.6,37.5,50.5z"/>
</g>
<g id="Geotecnia" display="none">
	<g display="inline">
		<defs>
			<circle id="SVGID_7_" cx="30.2" cy="34.2" r="32.1"/>
		</defs>
		<use xlink:href="#SVGID_7_"  overflow="visible" fill="#A59E9E"/>
		<clipPath id="SVGID_8_">
			<use xlink:href="#SVGID_7_"  overflow="visible"/>
		</clipPath>
		<g clip-path="url(#SVGID_8_)">
			<rect x="-1.9" y="36.7" fill="#FFFFFF" width="64" height="3"/>
			<g>
				<path fill="#FFFFFF" d="M15.5,13.7h-3.1l0,13.4l0,11.6h1.7V20.5c3,13.7,15.6,18.6,15.7,18.6l1.2-1.8
					C30.8,37.3,16.3,31.7,15.5,13.7z"/>
			</g>
			<g>
				<rect x="9.1" y="39.7" fill="#FFFFFF" width="4" height="13"/>
				<rect x="45.1" y="39.7" fill="#FFFFFF" width="4" height="13"/>
			</g>
			<g>
				<path fill="#FFFFFF" d="M11.2,13.7h3.1l0,13.4l0,11.6h-2.1V20.5c-2.4,10.8-11,16.1-14,17.9V36C2.1,33.6,10.6,27.1,11.2,13.7z"/>
			</g>
			<g>
				<path fill="#FFFFFF" d="M48.1,13.7H45l0,13.4l0,11.6h1.1V20.5c2.8,12.7,14,17.8,15.8,18.5c0.1,0.1,0,0,0,0l0.3-2.2c0,0,0,0,0,0
					C58.7,35,48.8,28.6,48.1,13.7z"/>
			</g>
			<g>
				<path fill="#FFFFFF" d="M43.8,13.7h3.1l0,13.4l0,11.6h-2.8V20.5c-3,13.7-15,18.6-15.2,18.6L28,37.3C28.2,37.3,43,31.7,43.8,13.7
					z"/>
			</g>
		</g>
	</g>
</g>
<g id="Mineria" display="none">
	<g display="inline">
		<defs>
			<circle id="SVGID_9_" cx="30.4" cy="34.4" r="32.4"/>
		</defs>
		<use xlink:href="#SVGID_9_"  overflow="visible" fill="#EBAE00"/>
		<clipPath id="SVGID_10_">
			<use xlink:href="#SVGID_9_"  overflow="visible"/>
		</clipPath>
	</g>
	<path display="inline" fill="#FFFFFF" d="M27.4,24.2l6.8,6l1.8-2.6l9.8,8.3c0,0-3.2-18.3-17.3-26.2l-5,6.9l6.2,4.6L27.4,24.2z"/>
	<path display="inline" fill="#FFFFFF" d="M10.1,51c-1.4-1.2-1.6-3.3-0.4-4.8l16.5-19.4c0.1-0.1,0.1-0.2,0.2-0.2l5.2,4.3
		c-0.1,0.1-0.2,0.2-0.3,0.3L14.9,50.7C13.7,52.1,11.5,52.3,10.1,51z"/>
	<polygon display="inline" fill="#FFFFFF" points="51.5,40.1 50.5,23.5 52.5,22.7 	"/>
	<polygon display="inline" fill="#FFFFFF" points="49.4,43.5 38.4,55.9 36.4,55.1 	"/>
	<polygon display="inline" fill="#FFFFFF" points="50.1,41.7 32.4,41.7 30.2,43.6 	"/>
	<path display="inline" fill="#FFFFFF" d="M42.9,43l-0.7,1.7h-2.1v1.1l2.8,1.9l2.7-2.4C45.6,45.4,45.3,43,42.9,43z"/>
	<path display="inline" fill="#FFFFFF" d="M48,30.2l-0.6,1.5h-1.3v0.7l2.1,1.6l2.1-1.9C50.3,32.1,49.9,30.3,48,30.2z"/>
	<path display="inline" fill="#FFFFFF" d="M39.9,36l-1.1-0.7l0.2-1.6l-1.5-0.2l-1.9,2l1.8,2.6C37.4,38.1,39.6,38.1,39.9,36z"/>
</g>
<g id="Nombres" display="none">
	
		<text transform="matrix(1 0 0 1 458.9214 84.6992)" display="inline" fill="#A69F9F" font-family="'CenturyGothic'" font-size="15">GEOTERMIA</text>
	<text transform="matrix(1 0 0 1 351.5881 84.7)" display="inline" fill="#A59E9E" font-family="'CenturyGothic'" font-size="15">AMBIENTAL</text>
	<text transform="matrix(1 0 0 1 84.3198 84.6992)" display="inline" fill="#0089C3" font-family="'CenturyGothic'" font-size="15">GEOHIDROLOGÍA</text>
	
		<text transform="matrix(1 0 0 1 562.5881 84.6992)" display="inline" fill="#A59E9E" font-family="'CenturyGothic'" font-size="15">ARQUEOLOGÍA</text>
	
		<text transform="matrix(1 0 0 1 675.9216 83.6992)" display="inline" fill="#A59E9E" font-family="'CenturyGothic'" font-size="15">GEOTECNIA</text>
	<text transform="matrix(1 0 0 1 -0.4119 83.6997)" display="inline" fill="#A59E9E" font-family="'CenturyGothic'" font-size="15">MINERÍA</text>
	
		<text transform="matrix(1 0 0 1 216.5881 84.6997)" display="inline" fill="#A59E9E" font-family="'CenturyGothic'" font-size="15">HIDROCARBUROS</text>
</g>
<g id="Hidrocarburos">
	<g>
		<defs>
			<circle id="SVGID_11_" cx="32.4" cy="32.4" r="32.4"/>
		</defs>
		<use xlink:href="#SVGID_11_"  overflow="visible" fill="#5D5957"/>
		<clipPath id="SVGID_12_">
			<use xlink:href="#SVGID_11_"  overflow="visible"/>
		</clipPath>
	</g>
	<path fill="#FFFFFF" d="M43.8,37.4c-3.4-10-12.7-19.9-11.8-27.8c0,0-11.1,14.3-13,27.5c-1.2,8.5,1.3,18.3,13.1,18
		C45.4,54.7,46.5,45.6,43.8,37.4z"/>
</g>
<g id="Ambiental" display="none">
	<g display="inline">
		<defs>
			<circle id="SVGID_13_" cx="390.4" cy="34.4" r="32.4"/>
		</defs>
		<use xlink:href="#SVGID_13_"  overflow="visible" fill="#59AF31"/>
		<clipPath id="SVGID_14_">
			<use xlink:href="#SVGID_13_"  overflow="visible"/>
		</clipPath>
	</g>
	<path display="inline" fill="#FFFFFF" d="M395.3,21c0,0-8.6,7.4-13.3,22.4c0,0-9.1-8.5,0.5-17.9c9.6-9.4,16.9-11.1,19.9-11.5
		c0,0-1.6,3.2-1.4,9.9c0.2,6.7,0.3,13.7-4.2,17.9c-4.6,4.2-9.9,3.3-9.9,3.3s-1.5,3.4-1.8,8.9c0,0-2.4,0.5-3.4-0.4
		C380.6,52.7,385.4,32.1,395.3,21z"/>
</g>
</svg>
