<?xml version="1.0" encoding="utf-8"?>
<!-- Generator: Adobe Illustrator 18.0.0, SVG Export Plug-In . SVG Version: 6.00 Build 0)  -->
<!DOCTYPE svg PUBLIC "-//W3C//DTD SVG 1.1//EN" "http://www.w3.org/Graphics/SVG/1.1/DTD/svg11.dtd">
<svg version="1.1" id="Layer_1" xmlns="http://www.w3.org/2000/svg" xmlns:xlink="http://www.w3.org/1999/xlink" x="0px" y="0px"
	 viewBox="0 0 40 52" enable-background="new 0 0 40 52" xml:space="preserve">
<g>
	<path fill="#FFFFFF" d="M8.3,19.9c0,0,0-0.1,0.1-0.3c0.1-0.2,0.1-0.3,0.2-0.6c0.1-0.2,0.1-0.5,0.2-0.8c0-0.3,0.1-0.6,0.1-0.8
		c0-0.3-0.1-0.6-0.2-0.8c-0.1-0.3-0.3-0.5-0.5-0.7c-0.1-0.1-0.3-0.2-0.5-0.1S7.1,15.8,6.8,16c-0.3,0.1-0.5,0.3-0.8,0.5
		c-0.3,0.2-0.5,0.5-0.7,0.7c-0.2,0.3-0.4,0.6-0.5,0.9c-0.1,0.3-0.2,0.6-0.1,0.9c0,0.2,0.1,0.5,0.1,0.6c0.1,0.2,0.2,0.4,0.3,0.5
		s0.2,0.3,0.3,0.4c0.1,0.1,0.2,0.2,0.3,0.3c0.1,0.1,0.3,0.3,0.5,0.4c0.2,0.2,0.5,0.3,0.7,0.5c0.3,0.2,0.5,0.4,0.8,0.7
		c0.3,0.3,0.5,0.6,0.8,0.9c0.2,0.4,0.4,0.8,0.6,1.2c0.1,0.5,0.2,1,0.3,1.6c0,0.8-0.1,1.6-0.2,2.2S8.7,29.6,8.5,30
		c-0.3,0.4-0.5,0.7-0.8,0.9c-0.3,0.2-0.5,0.4-0.8,0.4c-0.2,0.1-0.4,0.1-0.6,0.2c-0.2,0.1-0.5,0.1-0.7,0.1c-0.3,0-0.5,0-0.8-0.1
		c-0.3-0.1-0.5-0.2-0.8-0.4c-0.3-0.2-0.5-0.5-0.7-0.8c-0.2-0.3-0.3-0.6-0.4-0.9c-0.1-0.4-0.2-0.7-0.1-1.1C2.8,28.1,2.9,28,3,27.9
		c0.1-0.1,0.2-0.2,0.3-0.3c0.1-0.1,0.2-0.2,0.3-0.2c0.1-0.1,0.3-0.1,0.4-0.2c0.1,0,0.2-0.1,0.4-0.1c0.1,0,0.3,0,0.4,0
		c-0.1,0.2-0.2,0.4-0.3,0.6c0,0.1,0,0.2-0.1,0.3c0,0.2,0,0.5,0.1,0.8c0.1,0.3,0.2,0.6,0.3,0.8C5,29.8,5.2,30,5.4,30.2
		c0.2,0.2,0.5,0.2,0.9,0.2c0.8-0.1,1.4-0.9,1.7-2.3c0.1-0.4,0.1-0.9,0.1-1.3c-0.1-0.4-0.2-0.8-0.4-1.2c-0.2-0.4-0.4-0.7-0.6-1
		c-0.2-0.3-0.5-0.6-0.7-0.8c-0.2-0.2-0.5-0.4-0.8-0.7c-0.3-0.2-0.6-0.5-0.9-0.8c-0.3-0.3-0.6-0.6-0.8-0.9c-0.3-0.3-0.5-0.7-0.6-1.2
		c-0.2-0.6-0.2-1.2-0.1-1.7c0.1-0.6,0.3-1.1,0.6-1.5c0.3-0.5,0.6-0.8,1-1.2c0.4-0.3,0.7-0.5,1-0.7c1.7-0.7,3-0.6,3.7,0.3
		c0.3,0.3,0.5,0.7,0.6,1.1c0.1,0.4,0.1,0.8,0.1,1.2c0,0.4,0,0.7-0.1,0.9C10.1,19,10,19.2,10,19.2c-0.1,0.1-0.1,0.2-0.3,0.3
		c-0.1,0.1-0.4,0.2-0.7,0.3c-0.1,0-0.2,0.1-0.3,0.1c-0.1,0-0.2,0-0.3,0C8.4,19.9,8.4,19.9,8.3,19.9z"/>
	<path fill="#FFFFFF" d="M15.7,20c-0.2,0.4-0.4,0.8-0.7,1.2c-0.3,0.4-0.5,0.8-0.8,1.1c-0.3,0.3-0.6,0.6-1,0.8
		c-0.3,0.2-0.7,0.4-1,0.4c-0.2,0-0.4,0-0.6,0s-0.4-0.1-0.6-0.3c-0.2-0.2-0.4-0.4-0.5-0.6c-0.2-0.3-0.2-0.6-0.3-1
		c0-0.3,0-0.7,0.1-1.1c0.1-0.4,0.3-0.8,0.5-1.1c0.2-0.4,0.4-0.7,0.7-0.9c0.3-0.3,0.6-0.4,0.9-0.5c0.3-0.1,0.6,0,0.7,0.1
		c0.2,0.1,0.3,0.3,0.3,0.5c0,0.3,0,0.5-0.1,0.7c-0.1,0.2-0.2,0.5-0.3,0.7c-0.1,0.2-0.3,0.4-0.4,0.6c-0.2,0.2-0.3,0.3-0.5,0.5
		c-0.2,0.2-0.3,0.3-0.5,0.4c-0.1,0.1-0.3,0.3-0.4,0.4c0,0.2,0.1,0.4,0.2,0.5c0.1,0.1,0.2,0.2,0.3,0.3s0.2,0.1,0.4,0.1
		c0.1,0,0.3,0,0.4,0c0.3,0,0.6-0.2,0.8-0.4c0.3-0.2,0.5-0.5,0.8-0.8c0.2-0.3,0.5-0.6,0.7-0.9c0.2-0.3,0.4-0.6,0.5-0.8
		c0-0.1,0.1-0.1,0.2-0.1c0.1,0,0.1,0,0.2,0c0,0,0.1,0.1,0.1,0.1C15.7,19.8,15.7,19.9,15.7,20z M12.2,18.7c-0.1,0-0.2,0.1-0.3,0.2
		c-0.1,0.1-0.2,0.3-0.3,0.5c-0.1,0.2-0.2,0.5-0.3,0.7c-0.1,0.3-0.1,0.6-0.1,1c0.1-0.1,0.2-0.2,0.3-0.3c0.1-0.1,0.2-0.2,0.3-0.3
		c0.3-0.3,0.5-0.6,0.6-0.8c0.1-0.2,0.2-0.4,0.1-0.6c0-0.2,0-0.3-0.1-0.3C12.4,18.7,12.3,18.6,12.2,18.7z"/>
	<path fill="#FFFFFF" d="M19.3,17.1c-0.1,0.5-0.1,0.9-0.2,1.7c0.2-0.1,0.5-0.3,0.8-0.4c0.3-0.1,0.6-0.2,0.9-0.3s0.6-0.2,0.9-0.3
		c0.3-0.1,0.6-0.1,0.9-0.2c0,0,0.1,0,0.1,0c0,0,0,0.1,0,0.1c0,0.1,0,0.1-0.1,0.2c-0.1,0.1-0.2,0.1-0.3,0.1c-0.2,0-0.3,0.1-0.5,0.2
		c-0.2,0.1-0.4,0.1-0.6,0.2c-0.2,0.1-0.4,0.2-0.6,0.2c-0.2,0.1-0.4,0.2-0.5,0.3c-0.1,0.1-0.3,0.1-0.4,0.2c-0.1,0.1-0.2,0.1-0.3,0.2
		c-0.1,0.1-0.2,0.1-0.3,0.2l-0.1,0.9c0.5,0.3,1,0.5,1.3,0.8c0.3,0.3,0.6,0.6,0.7,0.9c0.2,0.3,0.3,0.6,0.4,1c0.1,0.4,0.1,0.7,0,1.1
		c0,0.4-0.1,0.8-0.2,1.1c-0.1,0.4-0.3,0.7-0.5,1c-0.2,0.3-0.4,0.6-0.6,0.9c-0.2,0.3-0.5,0.5-0.7,0.6c-0.2,0.2-0.5,0.2-0.7,0.3
		c-0.2,0-0.3,0-0.5-0.1c-0.1-0.1-0.2-0.2-0.3-0.3c-0.1-0.1-0.1-0.3-0.2-0.5c0-0.2-0.1-0.4,0-0.5c0-0.2,0-0.5,0-1
		c0-0.4,0.1-1,0.1-1.8c0.1-0.8,0.1-1.8,0.2-3.1c-0.1-0.1-0.2-0.2-0.2-0.2c-0.1-0.1-0.1-0.2-0.1-0.2c0-0.1,0-0.2,0-0.3
		c0-0.1,0-0.2,0.1-0.3c0-0.1,0.1-0.2,0.2-0.3c0.1-0.1,0.2-0.2,0.3-0.3c0.1-0.3,0.1-0.6,0.1-0.9c0-0.3,0.1-0.6,0.1-0.8
		c0-0.3,0-0.6,0.1-0.9c0-0.3,0-0.8,0-0.8c0.3-2.8,2.9-3.7,4.2-2.7c0.5,0.4,0.6,1,0.5,1.6c-0.1,0.4-0.6,0.8-0.9,0.6
		c-0.2-0.1-0.2-0.4-0.2-0.6c0.1-0.4,0.2-0.5,0.5-0.7c-0.1-0.6-0.9-0.7-1.5-0.5c-0.3,0.1-1.4,0.5-1.6,2.2
		C19.5,15.7,19.4,16.3,19.3,17.1z M18.8,21.4c0,0.4-0.1,0.8-0.1,1.2c0,0.4,0,0.7-0.1,0.9c0,0.3,0,0.6,0,0.9c0,0.3,0,0.6-0.1,1
		c0,0.3,0,0.6,0,0.9c0,0.2,0,0.4,0,0.6c0,0.1,0.1,0.2,0.2,0.2c0.2,0,0.5-0.2,0.7-0.4c0.2-0.2,0.4-0.5,0.6-0.9
		c0.2-0.3,0.3-0.7,0.4-1.1c0.1-0.4,0.1-0.7,0-1c-0.1-0.3-0.2-0.7-0.3-1c-0.1-0.2-0.2-0.3-0.3-0.5c-0.1-0.1-0.2-0.3-0.4-0.4
		C19.2,21.6,19,21.5,18.8,21.4z"/>
	<path fill="#FFFFFF" d="M22,17c0-0.1,0.1-0.1,0.2-0.2c0.1-0.1,0.2-0.1,0.3-0.1c0.1,0,0.2-0.1,0.3-0.1c0.1,0,0.2,0,0.2,0
		c0,0,0,0.1,0,0.3c0,0.2,0,0.4-0.1,0.6c0,0.2-0.1,0.5-0.1,0.7c0,0.2-0.1,0.4-0.1,0.6c0,0.2,0,0.3-0.1,0.5c0,0.2,0,0.4-0.1,0.6
		c0,0.2,0,0.4,0,0.5c0,0.2,0,0.3,0.1,0.4c0.1,0.1,0.1,0.2,0.2,0.2c0.1,0,0.1,0,0.2,0c0.2,0,0.4-0.2,0.6-0.4c0.2-0.2,0.4-0.5,0.7-0.8
		c0.2-0.3,0.4-0.6,0.6-0.9c0.2-0.3,0.3-0.5,0.4-0.7c0.1-0.1,0.1-0.2,0.2-0.2c0.1,0,0.1,0,0.2,0c0.1,0,0.1,0.1,0.1,0.1
		c0,0.1,0,0.2,0,0.3c-0.1,0.3-0.2,0.6-0.4,0.9c-0.2,0.4-0.4,0.7-0.7,1.1c-0.2,0.3-0.5,0.6-0.7,0.9c-0.2,0.3-0.4,0.4-0.6,0.4
		c-0.1,0-0.3,0-0.4,0c-0.1,0-0.3-0.1-0.4-0.2c-0.1-0.1-0.2-0.2-0.3-0.3C22,21.1,22,21,21.9,20.9c-0.1-0.2-0.1-0.5-0.1-0.8
		s-0.1-0.7-0.1-1.1c0-0.4,0-0.8,0.1-1.1C21.9,17.4,21.9,17.2,22,17z"/>
	<path fill="#FFFFFF" d="M30.7,17.4c-0.2,0.4-0.4,0.8-0.7,1.2c-0.3,0.4-0.5,0.8-0.8,1.1c-0.3,0.3-0.6,0.6-1,0.8
		c-0.3,0.2-0.7,0.4-1,0.4c-0.2,0-0.4,0-0.6,0s-0.4-0.1-0.6-0.3c-0.2-0.2-0.4-0.4-0.5-0.6c-0.2-0.3-0.2-0.6-0.3-1
		c0-0.3,0-0.7,0.1-1.1c0.1-0.4,0.3-0.8,0.5-1.1c0.2-0.4,0.4-0.7,0.7-0.9c0.3-0.3,0.6-0.4,0.9-0.5c0.3-0.1,0.6,0,0.7,0.1
		c0.2,0.1,0.3,0.3,0.3,0.5c0,0.3,0,0.5-0.1,0.7c-0.1,0.2-0.2,0.5-0.3,0.7c-0.1,0.2-0.3,0.4-0.4,0.6c-0.2,0.2-0.3,0.3-0.5,0.5
		c-0.2,0.2-0.3,0.3-0.5,0.4c-0.1,0.1-0.3,0.3-0.4,0.4c0,0.2,0.1,0.4,0.2,0.5c0.1,0.1,0.2,0.2,0.3,0.3c0.1,0.1,0.2,0.1,0.4,0.1
		c0.1,0,0.3,0,0.4,0c0.3,0,0.6-0.2,0.8-0.4c0.3-0.2,0.5-0.5,0.8-0.8c0.2-0.3,0.5-0.6,0.7-0.9c0.2-0.3,0.4-0.6,0.5-0.8
		c0-0.1,0.1-0.1,0.2-0.1c0.1,0,0.1,0,0.2,0c0,0,0.1,0.1,0.1,0.1C30.7,17.2,30.7,17.3,30.7,17.4z M27.2,16c-0.1,0-0.2,0.1-0.3,0.2
		c-0.1,0.1-0.2,0.3-0.3,0.5c-0.1,0.2-0.2,0.5-0.3,0.7c-0.1,0.3-0.1,0.6-0.1,1c0.1-0.1,0.2-0.2,0.3-0.3c0.1-0.1,0.2-0.2,0.3-0.3
		c0.3-0.3,0.5-0.6,0.6-0.8c0.1-0.2,0.2-0.4,0.1-0.6c0-0.2,0-0.3-0.1-0.3C27.4,16,27.3,16,27.2,16z"/>
	<path fill="#FFFFFF" d="M16.5,16c0,0.1,0,0.3,0,0.4c0,0.1,0,0.3,0,0.4c0,0.3-0.1,0.7-0.2,1.1c-0.1,0.4-0.1,0.8-0.2,1.2
		c-0.1,0.5-0.2,1-0.3,1.5c0,0.4,0.1,0.6,0.2,0.8c0.1,0.2,0.2,0.3,0.3,0.4c0.1,0.1,0.3,0.1,0.4,0.1c0.1,0,0.3-0.1,0.4-0.2
		c0.2-0.1,0.3-0.3,0.5-0.5c0.2-0.2,0.3-0.4,0.5-0.7c0.2-0.2,0.3-0.5,0.4-0.7c0.1-0.2,0.2-0.4,0.3-0.6s0.2-0.3,0.2-0.4
		c0-0.1,0.1-0.1,0.1-0.1c0.1,0,0.1,0,0.1,0c0,0,0.1,0.1,0.1,0.1c0,0.1,0,0.1,0,0.2c-0.1,0.3-0.3,0.7-0.5,1.1
		c-0.2,0.4-0.4,0.8-0.7,1.2c-0.2,0.4-0.5,0.7-0.7,0.9c-0.2,0.3-0.5,0.4-0.6,0.4c-0.3,0-0.5,0-0.7,0c-0.2-0.1-0.4-0.2-0.5-0.3
		c-0.1-0.1-0.2-0.3-0.3-0.5c-0.1-0.2-0.1-0.3-0.1-0.5c0-0.1,0-0.4,0-0.7c0-0.3,0-0.8,0-1.2c0-0.5,0-1,0-1.5c0-0.5,0-1,0.1-1.5
		c0,0,0-0.6,0.1-0.8c0-0.4,0.1-0.8,0.1-1.1c0.1-0.3,0.1-0.5,0.2-0.7c0,0,0.1-0.1,0.1-0.1c0.1,0,0.2-0.1,0.3-0.1c0.1,0,0.2,0,0.3,0
		c0.1,0,0.2,0,0.2,0.1c0.1,0.1,0.1,0.2,0.1,0.5c0,0.3,0.1,0.6,0,1.1C16.5,15.2,16.5,15.8,16.5,16z"/>
	<path fill="#FFFFFF" d="M20.1,33.2c0.2-0.3,0.6-0.7,0.8-1c0.2-0.3,0.4-0.6,0.6-0.9c0.2-0.3,0.6,0.1,0.4,0.4
		c-0.2,0.4-0.4,0.7-0.7,1.1c-0.2,0.3-0.5,0.6-0.7,0.9c0,0-0.2,0.2-0.5,0.7C19.9,34.6,20.1,33.2,20.1,33.2z"/>
	<path fill="#FFFFFF" d="M17,31c0-0.1,0.1-0.1,0.1-0.1c0.1,0,0.1,0,0.1,0c0,0,0.1,0.1,0.1,0.1c0,0.1,0,0.1,0,0.2
		c-0.1,0.3-0.3,0.7-0.5,1.1c-0.2,0.4-0.4,0.8-0.7,1.2c-0.2,0.4-0.5,0.7-0.7,0.9c-0.2,0.3-0.5,0.4-0.6,0.4c-0.3,0-0.5,0-0.7,0
		c-0.2-0.1-0.4-0.2-0.5-0.3c-0.1-0.1-0.2-0.3-0.3-0.5c-0.1-0.2-0.1-0.3-0.1-0.5c0-0.1,0-0.4,0-0.7c0-0.3,0-0.8,0-1.2
		c0-0.5,0-1,0-1.5c0-0.5,0-1,0.1-1.5c-0.1,0-0.3,0.1-0.4,0.1c-0.1,0-0.3,0.1-0.4,0.1c-0.3,0-0.5,0.1-0.8,0c-0.2,0-0.4,0-0.6-0.1
		c-0.1,0-0.1-0.1-0.1-0.1c0-0.1,0-0.1,0-0.2c0-0.1,0.1-0.1,0.1-0.2c0.1-0.1,0.1-0.1,0.2-0.1c0.2,0,0.3,0,0.5,0
		c0.2,0,0.4-0.1,0.6-0.1c0.2,0,0.3-0.1,0.4-0.1c0.1,0,0.3-0.1,0.4-0.1c0-0.4,0.1-0.8,0.1-1.1c0.1-0.3,0.1-0.5,0.2-0.7
		c0,0,0.1-0.1,0.1-0.1c0.1,0,0.2-0.1,0.3-0.1c0.1,0,0.2,0,0.3,0c0.1,0,0.2,0,0.2,0.1c0.1,0.1,0.1,0.2,0.1,0.5c0,0.3,0.1,0.6,0,1.1
		c0.3-0.1,0.7-0.1,0.9-0.1c0.3,0,0.5,0,0.7,0c0.2,0,0.4,0,0.5,0.1c0.1,0,0.2,0,0.3,0c0.1,0,0.1,0,0.1,0.1c0,0.1,0,0.1,0,0.2
		c0,0.1-0.1,0.1-0.1,0.2c-0.1,0.1-0.1,0.1-0.2,0.1c-0.1,0-0.2,0-0.3,0c-0.1,0-0.2,0-0.4,0c-0.1,0-0.3,0-0.5,0
		c-0.2,0-0.4,0.1-0.7,0.1c0,0-0.1,0-0.2,0c-0.1,0-0.1,0-0.2,0c0,0.1,0,0.3,0,0.4c0,0.1,0,0.3,0,0.4c0,0.3-0.1,0.7-0.2,1.1
		c-0.1,0.4-0.1,0.8-0.2,1.2c-0.1,0.5-0.2,1-0.3,1.5c0,0.4,0.1,0.6,0.2,0.8c0.1,0.2,0.2,0.3,0.3,0.4c0.1,0.1,0.3,0.1,0.4,0.1
		c0.1,0,0.3-0.1,0.4-0.2c0.2-0.1,0.3-0.3,0.5-0.5c0.2-0.2,0.3-0.4,0.5-0.7c0.2-0.2,0.3-0.5,0.4-0.7c0.1-0.2,0.2-0.4,0.3-0.6
		S16.9,31.1,17,31z"/>
	<path fill="#FFFFFF" d="M30,29.3c-0.2,0.4-0.4,0.8-0.7,1.2c-0.3,0.4-0.5,0.8-0.8,1.1c-0.3,0.3-0.6,0.6-1,0.8
		c-0.3,0.2-0.7,0.4-1,0.4c-0.2,0-0.4,0-0.6,0s-0.4-0.1-0.6-0.3c-0.2-0.2-0.4-0.4-0.5-0.6c-0.2-0.3-0.2-0.6-0.3-1
		c0-0.3,0-0.7,0.1-1.1c0.1-0.4,0.3-0.8,0.5-1.1c0.2-0.4,0.4-0.7,0.7-0.9c0.3-0.3,0.6-0.4,0.9-0.5c0.3-0.1,0.6,0,0.7,0.1
		c0.2,0.1,0.3,0.3,0.3,0.5c0,0.3,0,0.5-0.1,0.7c-0.1,0.2-0.2,0.5-0.3,0.7c-0.1,0.2-0.3,0.4-0.4,0.6c-0.2,0.2-0.3,0.3-0.5,0.5
		c-0.2,0.2-0.3,0.3-0.5,0.4c-0.1,0.1-0.3,0.3-0.4,0.4c0,0.2,0.1,0.4,0.2,0.5c0.1,0.1,0.2,0.2,0.3,0.3s0.2,0.1,0.4,0.1
		c0.1,0,0.3,0,0.4,0c0.3,0,0.6-0.2,0.8-0.4c0.3-0.2,0.5-0.5,0.8-0.8c0.2-0.3,0.5-0.6,0.7-0.9c0.2-0.3,0.4-0.6,0.5-0.8
		c0-0.1,0.1-0.1,0.2-0.1c0.1,0,0.1,0,0.2,0c0,0,0.1,0.1,0.1,0.1C30.1,29.1,30.1,29.2,30,29.3z M26.5,27.9c-0.1,0-0.2,0.1-0.3,0.2
		c-0.1,0.1-0.2,0.3-0.3,0.5c-0.1,0.2-0.2,0.5-0.3,0.7c-0.1,0.3-0.1,0.6-0.1,1c0.1-0.1,0.2-0.2,0.3-0.3c0.1-0.1,0.2-0.2,0.3-0.3
		c0.3-0.3,0.5-0.6,0.6-0.8c0.1-0.2,0.2-0.4,0.1-0.6c0-0.2,0-0.3-0.1-0.3C26.7,27.9,26.6,27.9,26.5,27.9z"/>
	<path fill="#FFFFFF" d="M22.9,26.7c0,0.1,0,0.3,0,0.4c0,0.1,0,0.3,0,0.4c0,0.3-0.1,0.7-0.2,1.1c-0.1,0.4-0.1,0.8-0.2,1.2
		c-0.1,0.5-0.2,1-0.3,1.5c0,0.4,0.1,0.6,0.2,0.8s0.2,0.3,0.3,0.4c0.1,0.1,0.3,0.1,0.4,0.1c0.1,0,0.3-0.1,0.4-0.2
		c0.2-0.1,0.3-0.3,0.5-0.5c0.2-0.2,0.3-0.4,0.5-0.7c0.2-0.2,0.3-0.5,0.4-0.7c0.1-0.2,0.2-0.4,0.3-0.6s0.2-0.3,0.2-0.4
		c0-0.1,0.1-0.1,0.1-0.1c0.1,0,0.1,0,0.1,0c0,0,0.1,0.1,0.1,0.1c0,0.1,0,0.1,0,0.2c-0.1,0.3-0.3,0.7-0.5,1.1
		c-0.2,0.4-0.4,0.8-0.7,1.2c-0.2,0.4-0.5,0.7-0.7,0.9c-0.2,0.3-0.5,0.4-0.6,0.4c-0.3,0-0.5,0-0.7,0c-0.2-0.1-0.4-0.2-0.5-0.3
		c-0.1-0.1-0.2-0.3-0.3-0.5c-0.1-0.2-0.1-0.3-0.1-0.5c0-0.1,0-0.4,0-0.7c0-0.3,0-0.8,0-1.2c0-0.5,0-1,0-1.5c0-0.5,0-1,0.1-1.5
		c0,0,0-0.6,0.1-0.8c0-0.4,0.1-0.8,0.1-1.1c0.1-0.3,0.1-0.5,0.2-0.7c0,0,0.1-0.1,0.1-0.1c0.1,0,0.2-0.1,0.3-0.1c0.1,0,0.2,0,0.3,0
		c0.1,0,0.2,0,0.2,0.1c0.1,0.1,0.1,0.2,0.1,0.5c0,0.3,0.1,0.6,0,1.1C22.9,25.9,22.9,26.5,22.9,26.7z"/>
	<g>
		<path fill="#FFFFFF" d="M20.2,32c0,0.1,0.1,0.4,0.1,0.8c0,0.3,0,0.8,0,1.2c0,0.5,0,1,0,1.5c0,0.5,0,1-0.1,1.5c0,0,0,0.6-0.1,0.8
			c0,0.4-0.1,0.8-0.1,1.1c-0.1,0.3-0.1,0.5-0.2,0.7c0,0-0.1,0.1-0.1,0.1c-0.1,0-0.2,0.1-0.3,0.1c-0.1,0-0.2,0-0.3,0
			c-0.1,0-0.2,0-0.2-0.1c-0.1-0.1-0.1-0.2-0.1-0.5c0-0.3-0.1-0.6,0-1.1c0,0,0-0.6,0.1-0.8c0-0.1,0-0.3,0-0.4c0-0.1,0-0.3,0-0.4
			c0-0.3,0.1-0.7,0.2-1.1c0.1-0.4,0.2-1.3,0.2-1.3"/>
		<path fill="#FFFFFF" d="M19.3,34.3c0-0.2,0-0.3,0-0.4c0-0.2,0-0.4,0-0.5c0-0.2,0-0.3,0-0.5c-0.1,0.2-0.2,0.4-0.3,0.6
			c-0.1,0.2-0.2,0.3-0.3,0.5c-0.1,0.1-0.3,0.3-0.4,0.3c-0.2,0.1-0.3,0.1-0.5,0.1c-0.5,0-0.8-0.1-1-0.3s-0.4-0.6-0.4-1
			c0-0.2,0-0.4,0-0.6c0-0.2,0-0.4,0-0.6c0-0.2,0-0.4,0.1-0.5c0-0.2,0-0.3,0-0.3c0-0.3,0.1-0.6,0.1-0.8c0-0.2-0.1-0.4-0.2-0.5
			c0.1-0.1,0.2-0.2,0.3-0.2c0.1,0,0.2-0.1,0.3-0.1c0.1,0,0.2,0,0.3,0c0.2,0,0.4,0.1,0.4,0.2c0.1,0.1,0.1,0.3,0.1,0.6
			c0,0.1,0,0.3-0.1,0.6c0,0.2-0.1,0.5-0.1,0.7c0,0.2-0.1,0.5-0.1,0.7c0,0.2,0,0.3,0,0.4c0,0.4,0,0.7,0.1,0.9
			c0.1,0.2,0.3,0.3,0.5,0.2c0.1,0,0.2-0.1,0.3-0.2c0.1-0.1,0.2-0.3,0.3-0.4c0.1-0.2,0.2-0.4,0.3-0.6c0.1-0.2,0.2-0.4,0.3-0.7
			c0.1-0.2,0.1-0.4,0.2-0.7c0.1-0.2,0.1-0.4,0.1-0.6c0-0.3,0-0.6,0-0.7c0-0.2-0.1-0.3-0.3-0.4c0.1-0.1,0.2-0.2,0.3-0.2
			c0.1-0.1,0.2-0.1,0.3-0.1c0.1,0,0.2-0.1,0.3-0.1c0.2,0,0.4,0,0.4,0.1c0.1,0.1,0.1,0.3,0.1,0.6c0,0.1,0,0.3-0.1,0.6
			c0,0.2-0.1,0.5-0.1,0.8c0,0.3-0.1,0.7-0.1,1.1c0,0.1,0,0.6,0,0.6"/>
	</g>
	<g id="XMLID_1_">
		<g>
			<path fill="#FFFFFF" d="M38.8,23.9c0,10-7.4,18.4-16.5,18.4c-4.3,0-8.3-2.1-11.3-5.1l0,0c0,0,0,0,0,0v0l0,0l0,0
				c0.1-0.4,0.2-0.9,0.2-1.4c0.3,0.3,0.6,0.5,0.6,0.5c2.8,2.7,6.2,4.2,10.2,4.2c8.4,0,14.7-7.2,14.9-16.5c0.1-4.5-1.3-8.9-4.1-11.9
				c0,0-0.2-0.2-1,0.4c-0.3,0.2-0.8,0.3-1.2,0.4c-0.6,0.1-1.1,0.2-1.3,0.6c-0.4,0.3-0.5,0.1-0.5,0.1c-0.9,0.4-2,0.8-3,1.2
				c-0.2,0.1-0.4,0-0.5-0.2c-0.2-0.5-0.4-1-0.7-1.5c-0.3-0.6-0.2-0.6,0.4-0.9c0.8-0.3,1.5-0.6,2.3-1c0,0-0.2-0.1,0.5-0.4
				c0.4-0.2,0.8-0.4,1.1-0.5c0.2-0.1,0.4-0.1,0.6-0.1c-0.3-0.4-0.7-0.4-1-0.5c-0.4,0-1.1,0.2-1.1-0.1c0-0.3,0.7-0.5,2.3,0
				c-0.4-0.7-1.7-0.9-1.5-1.1c0.4-0.3,0.8,0,2.2,1c-0.2-0.7-1.4-1.3-1.1-1.5c0.1-0.1,0.3,0,0.6,0.2c0.6,0.5,1.2,1.2,1.9,1.7
				c0.5,0.4,1.8,0.8,2.1,1.2C37,14.3,38.8,18.9,38.8,23.9z M29.2,12.7c0.5-0.3,1.1-0.4,1.1-0.9c0-0.4-0.2-0.8-0.5-1.1
				c-0.4-0.3-0.9-0.1-1.4,0.1C28.7,11.5,29,12.1,29.2,12.7z M28.4,13.3c0.3-0.2,0.3-0.2,0.2-0.4c-0.2-0.6-0.5-1.1-0.7-1.7
				c0-0.1-0.2,0-0.2,0c-0.5,0.2-1,0.4-1.6,0.7c0.2,0.1,0.4,0.2,0.6,0.4c0.3-0.3,0.6-0.5,1-0.2c0.2,0.1,0.3,0.5,0.3,0.7
				c-0.1,0.5-0.5,0.6-0.9,0.5c-0.1,0.2-0.2,0.5-0.2,0.7C27.4,13.8,27.9,13.6,28.4,13.3z"/>
			<path fill="#FFFFFF" d="M12,25.6c0.1,0.4,0.1,0.8,0.1,1.2c0,0.4,0,0.7-0.1,0.9s-0.1,0.4-0.1,0.4c-0.1,0.1-0.1,0.2-0.3,0.3
				c-0.1,0.1-0.4,0.2-0.7,0.3c-0.1,0-0.2,0.1-0.3,0.1c-0.1,0-0.2,0-0.3,0c-0.1,0-0.2,0-0.2,0c0,0,0-0.1,0.1-0.3
				c0.1-0.2,0.1-0.3,0.2-0.6c0.1-0.2,0.1-0.5,0.2-0.8c0-0.3,0.1-0.6,0.1-0.8c0-0.3-0.1-0.6-0.2-0.8c-0.1-0.3-0.3-0.5-0.5-0.7
				c-0.1-0.1-0.3-0.2-0.5-0.1c-0.2,0-0.5,0.1-0.7,0.2c-0.3,0.1-0.5,0.3-0.8,0.5c-0.3,0.2-0.5,0.5-0.7,0.7C7,26.4,6.8,26.7,6.7,27
				c-0.1,0.3-0.2,0.6-0.1,0.9c0,0.2,0.1,0.5,0.1,0.6c0.1,0.2,0.2,0.4,0.3,0.5c0.1,0.2,0.2,0.3,0.3,0.4c0.1,0.1,0.2,0.2,0.3,0.3
				c0.1,0.1,0.3,0.3,0.5,0.4c0.2,0.2,0.5,0.3,0.7,0.5c0.3,0.2,0.5,0.4,0.8,0.7c0.3,0.3,0.5,0.6,0.8,0.9c0.2,0.4,0.4,0.8,0.6,1.2
				s0.2,1,0.3,1.6c0,0.2,0,0.4,0,0.6c-0.4-0.3-1-0.8-1.4-1c0-0.1-0.1-0.2-0.1-0.3c-0.2-0.4-0.4-0.7-0.6-1c-0.2-0.3-0.5-0.6-0.7-0.8
				c-0.2-0.2-0.5-0.4-0.8-0.6c-0.3-0.2-0.6-0.5-0.9-0.8c-0.3-0.3-0.6-0.6-0.8-0.9c-0.3-0.3-0.5-0.7-0.6-1.2C5,28.6,5,28.1,5.1,27.5
				C5.2,27,5.4,26.4,5.7,26c0.3-0.5,0.6-0.8,1-1.2c0.4-0.3,0.7-0.5,1-0.7c1.7-0.7,3-0.6,3.7,0.3C11.7,24.8,11.9,25.2,12,25.6z"/>
			<path fill="#FFFFFF" d="M11.2,35.9c0,0.5-0.1,1-0.2,1.4c-0.4-0.3-0.7-0.6-1-0.8c0-0.2,0-0.5,0-0.7c0-0.3-0.1-0.6-0.2-0.8
				C10.2,35.1,10.8,35.5,11.2,35.9z"/>
			<polygon fill="#FFFFFF" points="11,37.2 11,37.2 11,37.2 			"/>
			<path fill="#FFFFFF" d="M11,37.2c0,0.1,0,0.1,0,0.2c-0.2,0.6-0.4,1.1-0.6,1.5c-0.3,0.4-0.5,0.7-0.8,0.9C9.2,40,9,40.1,8.8,40.2
				c-0.2,0.1-0.4,0.1-0.6,0.2c-0.2,0.1-0.5,0.1-0.7,0.1s-0.5,0-0.8-0.1c-0.3-0.1-0.5-0.2-0.8-0.4c-0.3-0.2-0.5-0.5-0.7-0.8
				c-0.2-0.3-0.3-0.6-0.4-0.9c-0.1-0.4-0.2-0.7-0.1-1.1c0.1-0.6,0.3-1.1,0.6-1.5c0.3-0.4,0.6-0.7,0.8-0.9c0.8-0.6,2-0.6,3.6,0.1
				c0,0,0.1,0,0.1,0c0.1,0.3,0.2,0.5,0.2,0.8c0,0.2,0,0.5,0,0.7c-1.8-1.3-2.9-1-3.4-0.4c-0.1,0.2-0.2,0.4-0.3,0.6
				c0,0.1,0,0.2-0.1,0.3c0,0.2,0,0.4,0.1,0.7c0.1,0.3,0.2,0.6,0.3,0.8c0.2,0.3,0.3,0.5,0.6,0.6c0.2,0.2,0.5,0.2,0.9,0.2
				C9,39.1,9.6,38.4,9.9,37c0.1-0.2,0.1-0.4,0.1-0.5l0,0C10.3,36.6,10.7,36.9,11,37.2L11,37.2C11,37.2,11,37.2,11,37.2z"/>
		</g>
		<g>
		</g>
	</g>
</g>
</svg>
